<svg t="1681441097963" class="icon" viewBox="0 0 1029 1024" version="1.1" xmlns="http://www.w3.org/2000/svg" p-id="3457" width="200" height="200"><path d="M360.8 338.742857c0 86.971429 70.742857 157.714286 157.714286 157.714286s157.714286-70.742857 157.714285-157.714286-70.742857-157.714286-157.714285-157.714286-157.714286 70.742857-157.714286 157.714286z m269.714286 0c0 61.714286-50.285714 112-112 112s-112-50.285714-112-112 50.285714-112 112-112c61.828571 0 112 50.285714 112 112z" p-id="3458"></path><path d="M947.428571 697.142857c-10.742857-6.628571-24.8-3.314286-31.428571 7.428572s-3.314286 24.8 7.428571 31.428571c50.4 31.2 60.914286 59.2 60.914286 77.257143 0 18.285714-10.4 36.914286-31.085714 55.314286-22.4 20-56.342857 38.857143-98.285714 54.742857-90.4 34.171429-211.2 52.914286-340 52.914285s-249.485714-18.857143-340-52.914285c-41.942857-15.885714-76-34.742857-98.285715-54.742857-20.571429-18.4-31.085714-37.028571-31.085714-55.314286 0-29.828571 28.571429-61.142857 80.342857-88.228572 56.114286-29.371429 137.257143-52.342857 228.571429-64.457142 0.8-0.114286 1.6-0.228571 2.4-0.457143 70.171429 82.4 137.257143 145.371429 145.257143 152.914285 4.571429 4.228571 10.514286 6.4 16.342857 6.4 5.942857 0 11.771429-2.171429 16.342857-6.4 7.771429-7.314286 74.514286-69.942857 144.457143-151.885714 45.6 6.285714 88.342857 14.971429 127.085714 26.057143 10.971429 3.2 21.714286 6.514286 31.885714 10.057143 2.4 0.8 4.914286 1.257143 7.428572 1.257143 9.485714 0 18.4-5.942857 21.6-15.428572 4.114286-11.885714-2.285714-24.914286-14.171429-29.028571-10.857143-3.771429-22.4-7.314286-34.057143-10.742857-32.8-9.371429-68.228571-17.257143-105.714285-23.314286 5.828571-7.314286 11.428571-14.514286 16.914285-21.6 7.657143-10.057143 5.714286-24.342857-4.228571-32-10.057143-7.657143-24.342857-5.714286-32 4.228571-11.428571 14.971429-23.771429 30.4-36.8 45.942858-56.114286 67.314286-112.228571 123.428571-138.514286 148.914285-27.428571-26.514286-86.857143-85.942857-145.142857-156.8-94.171429-114.628571-144-208.685714-144-272.228571 0-77.257143 30.057143-149.828571 84.685714-204.457143 54.628571-54.628571 127.2-84.685714 204.457143-84.685714 77.257143 0 149.828571 30.057143 204.457143 84.685714 54.628571 54.628571 84.685714 127.2 84.685714 204.457143 0 43.2-22.857143 100.228571-67.771428 169.371428-6.857143 10.628571-3.885714 24.685714 6.742857 31.657143 10.628571 6.857143 24.685714 3.885714 31.657143-6.742857C828.457143 454.057143 853.714286 388.571429 853.714286 336.342857c0-89.485714-34.857143-173.485714-98.057143-236.8C692.114286 36.457143 608 1.6 518.514286 1.6c-89.485714 0-173.485714 34.857143-236.8 98.057143s-98.057143 147.314286-98.057143 236.8c0 71.428571 46.857143 166.4 139.314286 282.514286-86.971429 13.6-162.057143 36.114286-218.171429 65.6C18.171429 729.942857 0 779.657143 0 813.257143c0 31.885714 15.542857 61.942857 46.285714 89.371428 26.857143 24 64.8 45.371429 112.571429 63.428572 95.428571 36.114286 221.942857 55.885714 356.114286 55.885714 134.171429 0 260.571429-19.885714 356.114285-55.885714 47.885714-18.057143 85.714286-39.428571 112.571429-63.428572 30.742857-27.428571 46.285714-57.485714 46.285714-89.371428 0.114286-53.714286-44.8-92.8-82.514286-116.114286z" p-id="3459"></path></svg>